<?xml version="1.0" encoding="utf-8"?>
<!-- Generator: Adobe Illustrator 27.7.0, SVG Export Plug-In . SVG Version: 6.00 Build 0)  -->
<svg version="1.1" id="Layer_5" xmlns="http://www.w3.org/2000/svg" xmlns:xlink="http://www.w3.org/1999/xlink" x="0px" y="0px"
	 viewBox="0 0 572.3 691.7" style="enable-background:new 0 0 572.3 691.7;" xml:space="preserve">
<style type="text/css">
	.st0{fill:#222222;}
	.st1{fill:#F2F2F2;}
	.st2{fill:#FFDC00;}
	.st3{fill:#DDDEDD;}
	.st4{fill:#E9BE08;}
	.st5{fill:#252526;}
	.st6{fill:#343434;}
	.st7{fill:#454545;}
	.st8{fill:#555454;}
	.st9{fill:#333333;}
	.st10{fill:#3D3E3E;}
	.st11{fill:#484949;}
	.st12{fill:#797879;}
	.st13{fill:#212122;}
	.st14{fill:#575656;}
	.st15{fill:#2B2B2B;}
	.st16{fill:#FFFFFF;}
	.st17{fill:#D2D2D2;}
	.st18{fill:#D5D3D3;}
	.st19{fill:#767676;}
	.st20{fill:#D3D2D2;}
	.st21{fill:#232323;}
	.st22{fill:#D92B55;}
	.st23{fill:#ED6B91;}
</style>
<g>
	<path class="st0" d="M529.6,515.1c0-22.7-18-46.1-43.8-46.1c-18.6,0-27.7,8.1-34.4,16.9c-11.1,14.6-83.1,86-165.4,86
		s-154.2-71.3-165.4-86c-6.7-8.8-15.8-16.9-34.4-16.9c-25.8,0-43.8,23.5-43.8,46.1c0,39.6,62.3,115.5,161.1,144.7
		c2.9,8.1,10.8,25.5,31,25.5c16.4,0,25.6-12,26.4-12c1.3,0,6.9,18.4,26.4,18.4c18.6,0,24.8-19.9,26.1-19.9c1,0,7.2,13.7,27.6,13.7
		c18.7,0,27.5-18.6,30.2-26.4C468.5,629.2,529.6,554.4,529.6,515.1z"/>
	<path class="st1" d="M328.4,668.7c0.7,1,2,2.5,4.7,2.5c1.5,0,2.1-0.8,3.5-0.8c1.4,0,1.9,1.4,1.9,2.7c0,1.3-1.2,3.2-5,3.2
		c-4.6,0-9.5-4.8-11.1-6.9c-1.9,0.2-3.8,0.5-5.8,0.7c1.7,2.7,8.5,11.6,24.2,11.6c15.9,0,24.2-15.9,25.8-21.3
		C354.4,663.9,341.7,666.7,328.4,668.7z"/>
	<path class="st2" d="M286.1,667.6c145.1,0,240.1-105,240.1-152.4c0-28.4-24.7-42.8-41.2-42.8c-17.3,0-20.3,4.7-34.9,20.2
		c-30.8,32.7-89.2,82.3-164,82.3c-74.8,0-133.1-49.6-164-82.3c-14.7-15.5-17.6-20.2-34.9-20.2c-16.6,0-41.2,14.4-41.2,42.8
		C45.9,562.6,140.9,667.6,286.1,667.6z"/>
	<path class="st0" d="M286.1,661.7c149,0,234.7-108.1,234.7-146.7c0-18.2-14.7-36.5-35.1-36.5c-16.6,0-20.7,7.3-29.4,16.5
		c-15.9,16.8-81.7,85.6-170.1,85.6c-88.4,0-154.2-68.8-170.1-85.6c-8.7-9.2-12.8-16.5-29.4-16.5c-20.5,0-35.1,18.3-35.1,36.5
		C51.4,553.6,137.1,661.7,286.1,661.7z"/>
	<g>
		<path class="st2" d="M168.5,598.3c-1.7,3-3.9,4.9-6.7,5.8c-2.8,0.9-5.4,0.7-7.8-0.6c-2.7-1.5-4.3-3.2-4.8-5.1
			c-0.7-2.4,0.1-5.6,2.4-9.7l16.2-28.8l-10.4-5.8l-17.6,31.3c-2.7,4.8-3.2,9.6-1.5,14.2c1.7,4.5,5.6,8.5,11.5,11.9
			c3.8,2.1,7.5,3.2,10.9,3.2c2.3,0,4.6-0.5,6.8-1.4c4.5-2,8.4-5.9,11.7-11.7l15-26.7l-9.6-5.4L168.5,598.3z"/>
		<polygon class="st2" points="234.4,621.2 218.7,582.2 209.7,579.9 196.3,630.8 206,633.3 214.7,600.3 230.9,639.9 239,642 
			252.3,591.1 242.9,588.6 		"/>
		
			<rect x="248.9" y="614.7" transform="matrix(3.466506e-02 -0.9994 0.9994 3.466506e-02 -354.6243 874.2189)" class="st2" width="52.6" height="11.9"/>
		<polygon class="st2" points="334.7,590.5 293.6,595.5 294.6,604.2 309.4,602.4 314.6,646 326.4,644.5 321.2,600.9 335.7,599.2 		
			"/>
		<polygon class="st2" points="370,624.5 365.4,610.7 380.8,605.6 378,597.3 362.6,602.4 358.9,591.2 374.9,585.9 372.1,577.6 
			344.8,586.7 361.5,636.6 390.8,626.8 388,618.5 		"/>
		<path class="st2" d="M437.9,569.6c-4.2-7-9.7-11.1-16.4-12.2c-6.5-1.1-13.5,0.6-21,5.1l-16.1,9.7l27,45.2L427,608
			c7.1-4.3,11.9-9.6,14.1-15.9C443.6,584.9,442.6,577.3,437.9,569.6z M417.1,603.6l-17.9-29.9l4.9-3c4.4-2.6,8.5-3.7,12.1-3.2
			c4.2,0.6,7.8,3.5,10.9,8.6c3,5,4.2,9.7,3.4,13.9c-0.7,4.2-3,7.4-7.1,9.8L417.1,603.6z"/>
	</g>
	<path class="st0" d="M533.9,277.6c0,0,2.3,2.7,8.4,2.7c8.8,0,11.8-7,11.8-11.9c0-6.4-4.8-10.4-5.8-11.6
		c-0.9-1.2-30.2-31.5-31.2-32.7s-4.8-5.8-10.7-5.8c-6,0-12.4,7-12.4,19.2c0,1.3-0.4,2.9-0.9,4.6c-3.3-4.5-6.1-8.2-8.2-10.9
		c-7.5-9.3-43-54.7-108.1-79.5c-0.5-12.8-10.3-32.9-28.7-32.9c-15.7,0-32,11.5-39.2,17.6c-0.5,0-0.9-0.1-1.4-0.1
		c-2.9-8.1-12.6-24.6-19.7-24.6c-8,0-19.7,17.5-23.1,24.6c-0.6,0-1.1,0.1-1.7,0.1c-7.2-6.1-23.5-17.7-39.3-17.7
		c-18.6,0-28.5,20.5-28.8,33.3c-64.6,24.9-99.7,69.8-107.2,79.1c-2.1,2.6-4.9,6.4-8.3,11c-0.6-1.7-1-3.4-1-4.7
		c0-12.2-6.4-19.2-12.4-19.2s-9.7,4.6-10.8,5.8s-30.3,31.6-31.2,32.7c-0.9,1.2-5.9,6.6-5.8,11.6s2.9,11.9,11.8,11.9
		c6.1,0,8.4-2.7,8.4-2.7s0.3,7,0,11.6c-6,5.3-12.3,10.1-18.8,14c0,47.5,21.9,76.1,50.4,76.1c35.2,0,62.6-39.8,68.4-48.5
		c2.6-3.9,15.2-23.5,36.4-43.7c34.2-33.6,75.8-49.6,111.5-49.6s78.4,16.5,110.4,48.6c21.9,20.6,34.9,40.8,37.5,44.8
		c5.8,8.7,33.1,48.5,68.4,48.5c28.5,0,50.4-28.6,50.4-76.1c-6.5-3.9-12.8-8.7-18.8-14C533.6,284.5,533.9,277.6,533.9,277.6z"/>
	<path class="st1" d="M223.8,122.3c-7.9,0-11.9,5-11.9,8c0,2.9,1.2,4.3,3.2,4.3s2-1.2,2-2.8c0-1.6,1.8-3.1,4.7-3.1
		c2.8,0,4.7,3,4.7,5.3c0,2.3-2.9,7.1-10.8,7.1c-3.9,0-10.1-2.8-10.1-9.6c-4.6,6.1-6.7,13.9-7,19c17.5-6.4,37.2-11.3,58.9-13.7
		C252.3,132.6,237.8,122.3,223.8,122.3z"/>
	<path class="st1" d="M365.8,131.6L365.8,131.6c0,6.7-6.2,9.6-10.1,9.6c-7.9,0-10.8-4.8-10.8-7.1c0-2.3,1.8-5.3,4.7-5.3
		c2.8,0,4.7,1.5,4.7,3.1c0,1.6,0,2.8,2,2.8s3.2-1.4,3.2-4.3c0-2.9-4-8-11.9-8c-13.9,0-28.3,10.1-33.5,14.5
		c21.7,2.3,41.3,7.1,58.8,13.4C372.4,145.2,370.3,137.6,365.8,131.6z"/>
	<path class="st1" d="M286.9,115.5c-1.8,0-4,1.5-6.3,3.8c-1,1.1-0.9,2.1,1.4,2.1c2.3,0,4.3,1,4.3,3.9c0,2.9-4.4,7.7-10.1,7.7
		c-3.2,0-4.1-0.8-4.7-1.4c-1.2,1.9-2,3.5-2.5,4.4c5.6-0.4,11.3-0.5,17.1-0.5c5.7,0,11.4,0.2,16.9,0.5
		C301.6,132,293,115.5,286.9,115.5z"/>
	<path class="st1" d="M52.5,231.8c0.6,0,0.2,7.8,9.5,11.8c0.8,0.4-0.2,1.3-0.7,1.9s-11.4,16.7-22.7,27.1c-1.6,1.5-4.4,4.1-8.6,4.1
		c-4.2,0-8-2.9-8-8.4c0-5.7,3-8.1,4.7-9.8C28.4,256.9,50.6,234.2,52.5,231.8z"/>
	<path class="st1" d="M519.5,231.8c-0.6,0-0.2,7.8-9.5,11.8c-0.8,0.4,0.2,1.3,0.7,1.9s11.4,16.7,22.7,27.1c1.6,1.5,4.4,4.1,8.6,4.1
		c4.2,0,8-2.9,8-8.4c0-5.7-3-8.1-4.7-9.8C543.7,256.9,521.5,234.2,519.5,231.8z"/>
	<path class="st3" d="M530.8,286.3c-0.1-4.9,0.2-10.5,0.2-10.5c-15.6-13.2-26.9-32.9-26.9-33.3s11.6-4.1,11.6-12.6
		c0-4.1-4.3-8.4-8.5-8.4c-4.2,0-10.5,4.4-10.5,18.8c0,1.6,0.3,5.2,0.4,7.5C505.9,259.3,517.5,273.9,530.8,286.3z"/>
	<path class="st3" d="M41.3,286.4c13.3-12.4,24.9-27,33.6-38.6c0.2-2.3,0.5-6,0.5-7.6c0-14.4-6.3-18.8-10.5-18.8s-8.5,4.4-8.5,8.4
		c0,8.6,11.6,12.3,11.6,12.6s-11.3,20-26.9,33.3C41.1,275.8,41.4,281.4,41.3,286.4z"/>
	<path class="st1" d="M252.2,669.8c-1.6,1.9-6.6,6.3-10.8,6.3c-3.4,0-5.5-1.7-5.5-3.3s1.4-2.6,2.4-2.6s1.8,0.8,3.5,0.8
		c2.3,0,3.3-1.1,3.9-2.1c-12.9-1.8-25.4-4.4-37.3-7.7c2.5,6.7,9.3,20.6,26.5,20.6c9,0,19.1-5.5,22.7-11.5
		C255.9,670.2,254,670,252.2,669.8z"/>
	<path class="st1" d="M304.5,671.2c-1.2,2.6-5.5,10.1-10.8,10.1c-1.8,0-4.3-1.3-4.3-3.6s2.2-3.8,5-3.8c4.3,0,5.7-1.5,6.1-2.5
		c-4.8,0.2-9.6,0.4-14.4,0.4c-7.4,0-14.7-0.3-21.8-0.8c1.7,3.8,9,17.4,23,17.4c13.8,0,20.7-13.1,22.4-17.5
		C307.9,670.9,306.2,671.1,304.5,671.2z"/>
	<circle class="st0" cx="51.2" cy="426.6" r="51.2"/>
	<circle class="st2" cx="51.3" cy="426.6" r="48.2"/>
	<circle class="st0" cx="51.3" cy="426.6" r="42.2"/>
	<circle class="st0" cx="521" cy="426.6" r="51.2"/>
	<circle class="st2" cx="521" cy="426.6" r="48.2"/>
	<circle class="st0" cx="521" cy="426.6" r="42.2"/>
	<path class="st2" d="M286.1,233.8c84.6,0,135.9,74.4,150.6,94.7c12.7,17.5,34.6,46.9,64,46.9c31.2,0,48.2-29.2,48.2-70.2
		c-24.2-14.9-43.8-41-56.4-58.2C463.6,207.7,397.3,139,286.1,139c-111.3,0-177.5,68.7-206.4,107.9c-12.7,17.2-32.2,43.3-56.4,58.2
		c0,41,16.9,70.2,48.2,70.2c29.4,0,51.3-29.4,64-46.9C150.2,308.3,201.4,233.8,286.1,233.8z"/>
	<path class="st0" d="M286.1,227.7c88.8,0,140.6,76.5,157.1,99.3c16.5,22.8,36.2,42.8,57.4,42.8c31.8,0,42.2-37,42.2-61.5
		c-13.5-8.9-32.1-26-51.4-53s-84.5-110.3-205.4-110.3S99.9,228.4,80.7,255.4s-37.9,44.1-51.4,53c0,24.5,10.5,61.5,42.2,61.5
		c21.2,0,40.9-20,57.4-42.8C145.4,304.2,197.3,227.7,286.1,227.7z"/>
	<g>
		<path class="st1" d="M39.4,389.6c-0.9,0.8-2.4,2.4-2.4,3.4c0,0.9,0.8,1.8,1.4,2.4c3.7,3.6,13.6,6.6,20.3,6.3
			c7.4-0.4,11.9-4.9,11.9-6.2c0-1.9-1.2-3.7-1.3-3.8c-5.4-2.9-11.5-4.6-18.1-4.6c-4.3,0-8.4,0.7-12.2,2L39.4,389.6z"/>
		<path class="st1" d="M24.4,418.3c3-10.5,8.2-17.5,10.8-20.5c-1.4-1.5-2.2-3.1-2.2-4.8c0-0.4,0.1-0.9,0.2-1.3
			c-6.7,3.7-12.2,9.3-15.7,16.1C17.7,408.4,20,413.1,24.4,418.3z"/>
		<path class="st1" d="M74.6,395.5c0,3.7-5.3,8.4-12.5,9.8c-4.2,7.4-8.4,18.2-8.8,28c0.5,0,1,0,1.5,0c23.7,0,30.6-20.1,31.5-22.8
			c-2.5-6.1-6.6-11.3-11.7-15.3C74.6,395.3,74.6,395.4,74.6,395.5z"/>
		<path class="st1" d="M49.2,434.8c0-11.6,5-23.1,8.1-29.1c-5.9-0.1-13.9-2.1-19.1-5.4c-4.2,4.7-12.1,17.1-12.1,34.1
			c0,8.9,1.7,16.9,3,21.6c6.2,4.5,13.8,7.1,22.1,7.1c1.2,0,2.3-0.1,3.4-0.2C52.4,458.1,49.2,449,49.2,434.8z"/>
		<path class="st1" d="M54.8,437.4c-0.5,0-1,0-1.5,0c0.4,13.3,3.7,21.4,5.6,24.9c17.3-3.5,30.3-18.8,30.3-37.2c0-3-0.4-5.9-1-8.6
			C84.5,424.1,75.1,437.4,54.8,437.4z"/>
		<path class="st1" d="M22.2,434.4c0-4.1,0.4-7.9,1.1-11.4c-3.7-4-6.3-7.9-7.8-10.4c-1.4,3.9-2.1,8.2-2.1,12.6
			c0,10.2,4.1,19.5,10.7,26.4C23,446.8,22.2,440.9,22.2,434.4z"/>
	</g>
	<g>
		<path class="st1" d="M486.4,410.3c0.1,0.2,6.3,23.1,31.6,23.1c0.5,0,1,0,1.5,0c-0.4-9.8-4.7-20.7-8.8-28
			c-7.2-1.4-12.5-6.1-12.5-9.8c0-0.2,0-0.5,0-0.7c-5.3,4-9.5,9.3-12.1,15.5L486.4,410.3z"/>
		<path class="st1" d="M503.5,391.7c0,0-1.3,1.9-1.3,3.8c0.1,1.4,4.5,5.9,12,6.2c6.7,0.3,16.5-2.7,20.3-6.3c0.6-0.6,1.4-1.5,1.4-2.4
			c0-1-1.4-2.6-2.4-3.4l0.2-0.3c-3.9-1.4-8.2-2.2-12.6-2.2c-6.4,0-12.5,1.6-17.8,4.4L503.5,391.7z"/>
		<path class="st1" d="M539.8,393.1c0,1.7-0.7,3.3-2.2,4.8c2.5,2.9,7.8,10,10.8,20.5c3.8-4.4,6-8.5,6.7-9.9
			c-3.4-6.9-8.8-12.5-15.4-16.3C539.8,392.4,539.8,392.7,539.8,393.1z"/>
		<path class="st1" d="M519.5,437.3c-0.5,0-1,0-1.5,0c-21,0-30.3-14.2-33.7-21.6c-0.8,3-1.2,6.1-1.2,9.4c0,18.5,13.3,33.9,30.8,37.3
			C515.8,458.8,519.1,450.7,519.5,437.3z"/>
		<path class="st1" d="M546.6,434.4c0-17-7.9-29.4-12.1-34.1c-5.2,3.3-13.2,5.3-19.1,5.4c3.1,6,8.1,17.5,8.1,29.1
			c0,14.2-3.1,23.4-5.4,28.1c1,0.1,1.9,0.1,2.9,0.1c8.5,0,16.4-2.8,22.7-7.5C545,450.7,546.6,443,546.6,434.4z"/>
		<path class="st1" d="M549.5,423c0.7,3.5,1.1,7.3,1.1,11.4c0,6.2-0.8,11.8-1.7,16.4c6.2-6.8,10-15.8,10-25.7c0-4.2-0.7-8.2-2-12
			C555.5,415.7,553,419.3,549.5,423z"/>
	</g>
	<g>
		<polygon class="st2" points="88.8,270.6 105.9,306.8 68.5,295.4 59.3,306.6 99.5,339.5 106,331.6 78.6,309.1 115,320.6 
			119.2,315.4 101.6,280.1 129.4,302.9 137,293.6 96.8,260.7 		"/>
		<polygon class="st2" points="181.9,186.9 199.9,214.9 160.4,200.8 152.4,205.9 180.4,249.6 189,244.1 170.8,215.7 211.2,229.8 
			218.3,225.2 190.2,181.6 		"/>
		<path class="st2" d="M258.7,202.8c-0.9,1-2.1,2-3.6,2.9c-1.8,1.2-3.7,2-5.5,2.6c-5.6,1.6-10.4,1.1-14.2-1.4
			c-3.4-2.2-5.8-5.8-7.2-10.7c-1.4-4.9-1.1-9.4,0.7-13.4c2-4.4,5.5-7.2,10.7-8.6c2-0.5,4.1-0.8,6.7-0.7c2,0,3.6,0.3,4.8,0.7l1,0.3
			l2.6-8.5l-1-0.3c-2.2-0.6-4.9-1-8-1l-0.5,0c-3.3,0-6.6,0.5-9.8,1.4c-7.5,2.1-13.3,6.3-17.2,12.6c-3.9,6.3-4.9,13.2-2.9,20.4
			c2.1,7.5,6.7,13,13.8,16.3c4.1,1.9,8.4,2.9,12.8,2.9c2.9,0,6-0.4,9.1-1.3c3-0.8,5.5-1.8,7.5-3c2-1.1,4.1-2.8,6.2-5l0.7-0.7
			l-5.9-6.6L258.7,202.8z"/>
		<polygon class="st2" points="302.4,182.1 282,181.8 282.3,162.3 270.2,162.2 269.4,214.1 281.5,214.3 281.9,190.8 302.2,191.1 
			301.9,214.6 314,214.7 314.8,162.8 302.7,162.7 		"/>
		<polygon class="st2" points="358.1,203.2 360.8,195 345.1,189.8 348.8,178.7 365.1,184.2 367.9,176 340,166.7 323.6,216 
			353.5,225.9 356.3,217.7 337.8,211.6 342.4,198 		"/>
		<path class="st2" d="M392.5,198.7c1.4-0.2,2.9,0.2,4.6,1.1c1.6,0.8,2.9,2.1,4.1,3.8c0.4,0.5,0.8,1.3,1.3,2.4l0.4,0.8l7.9-3.4
			l-0.3-0.9c-0.6-1.6-1.7-3.4-3.3-5.2c-2-2.3-4.3-4.2-6.9-5.6c-4.3-2.3-8.6-3.2-12.6-2.7c-4.2,0.6-7.3,2.7-9.2,6.4
			c-0.9,1.7-1.4,3.6-1.5,5.5c0,1.7,0.3,3.5,0.9,5.4c0.4,1.1,1.1,3,2.2,5.4l2.1,5c1,2.2,1.6,4,1.9,5.2c0.4,2.1,0.2,3.9-0.6,5.4
			c-0.8,1.6-2,2.5-3.6,2.8c-1.6,0.3-3.4,0-5.2-1.1c-1.5-0.8-3.1-2.5-4.9-4.9c-0.6-0.8-1.3-2-2.2-3.5l-0.5-0.8l-7.7,3.9l0.3,0.8
			c0.6,1.9,2,4.1,4.2,6.5c2.2,2.4,4.8,4.4,7.9,6.1c3.6,1.9,7.1,2.9,10.6,2.9c1,0,1.9-0.1,2.9-0.2c4.6-0.7,8-3.1,10.1-7.1
			c1.4-2.5,1.9-5.2,1.6-8.1c-0.2-2-1-4.7-2.3-8l-3.1-7.9c-1.3-3.1-1.6-4.3-1.7-4.6c-0.4-1.4-0.3-2.5,0.1-3.3
			C390.4,199.6,391.3,198.9,392.5,198.7z"/>
		<polygon class="st2" points="447.7,242.3 453.5,235.9 422.1,207.6 416.3,214 427.6,224.2 398.7,256.3 407.6,264.4 436.6,232.2 		
			"/>
		<polygon class="st2" points="446.3,272.1 457,284.7 463.6,279.2 452.9,266.5 461.8,259 473,272.1 479.6,266.6 460.6,244.2 
			421,277.7 441.3,301.7 448,296.2 435.4,281.3 		"/>
		<path class="st2" d="M505.9,303c-0.3-4.1-2.3-8.2-6-12.2l-12.5-13.7l-38.3,35.1l8.2,8.9l15-13.7l3.3,3.6l-8.7,22.1l10.1,8
			l7.6-23.7c1.9,1,4.4,1.4,7.4,1.1c3.4-0.3,6.5-1.8,9.4-4.4C504.7,310.9,506.3,307.2,505.9,303z M492.3,305.9
			c-1.8,1.6-3.7,2.3-5.8,2.1c-2.2-0.2-4-1.2-5.6-3l-2.8-3.1l11.1-10.2l2.9,3.2c1.8,2,2.8,3.8,3,5.3
			C495.4,302.1,494.4,304,492.3,305.9z"/>
		<path class="st2" d="M152.9,250c2.3,2.5,3.5,5.2,3.5,8.2c0,2.9-0.9,5.3-2.9,7.2c-2.2,2.1-4.4,3.1-6.3,3.1
			c-2.5-0.1-5.3-1.8-8.5-5.2l-22.6-24.1l-8.7,8.1l24.5,26.2c3.8,4,8.2,6,13.1,5.7c4.8-0.2,9.8-2.7,14.8-7.4c3.2-3,5.3-6.1,6.4-9.5
			c0.7-2.2,0.9-4.5,0.7-6.9c-0.5-4.9-3.1-9.8-7.6-14.7l-20.9-22.4l-8.1,7.5L152.9,250z"/>
	</g>
	<path class="st0" d="M392.8,345.8L392.8,345.8c-5-4.5-11.4-7-18.2-7h-89.7h-0.6h-89.7c-6.7,0-13.2,2.5-18.2,7l0,0
		c-5.7,5.1-9,12.5-9,20.2v129.5c0,9.2,4.7,17.8,12.5,22.8l104.4,67.2v0.4l0.3-0.2l0.3,0.2v-0.4l104.4-67.2
		c7.8-5,12.5-13.6,12.5-22.8V365.9C401.8,358.2,398.5,350.9,392.8,345.8z"/>
	<path class="st2" d="M388,350.9L388,350.9c-4.8-4.3-10.9-6.7-17.4-6.7h-85.8h-0.6h-85.8c-6.4,0-12.6,2.4-17.4,6.7l0,0
		c-5.5,4.9-8.6,11.9-8.6,19.3v123.7c0,8.8,4.5,17,11.9,21.8l99.8,64.2v0.4l0.3-0.2l0.3,0.2v-0.4l99.8-64.2
		c7.4-4.8,11.9-13,11.9-21.8V370.2C396.6,362.9,393.5,355.9,388,350.9z"/>
	<path class="st4" d="M284.3,580.7v0.4l0.3-0.2l0.3,0.2l99.8-64.5c7.4-4.8,11.9-13,11.9-21.8V371c0-7.3-3.1-14.4-8.6-19.3v0
		c-4.8-4.3-10.9-6.7-17.4-6.7h-85.8h-0.6h-85.8c0,0,4.9,22.5,87.5,83.9C393.5,508.8,284.3,580.7,284.3,580.7z"/>
	<g>
		<path class="st0" d="M284.5,397.4c-5.9,4.5-12.1,4.2-18.3,2.3c-8-2.5-14.3-7.4-19.8-13.5c-0.5-0.6-1-1.3-1.5-1.8
			c-6.4-7.7-9.3-7.9-16.6-1.1c0.3-3.2,4.6-13.9,7.7-17.2c1.3-1.4,0.1-3.4,2.2-4.4c4.3-2,7.4-2,10.7,1.6c4.5,4.8,8.5,9.9,12.9,14.8
			c3.3,3.7,6.8,7.3,10.4,10.8C275.6,392.3,279.9,394.9,284.5,397.4z"/>
		<path class="st0" d="M283.9,412.6c-0.4-6.8-0.4-6.8-6.9-6.8c-0.9,0-1.8,0-2.7,0l0,0l0,0c-13.8-1.8-24.8-8.8-34.1-18.6
			c-1.7-1.8-2.6-1.7-4.3-0.2c-6.8,6.1-10.8,13.6-12.1,22.6c-0.4,4-0.4,8,0,12c0.7,5.9,2.7,11.4,6.3,16.1
			c4.7,6.4,10.4,11.5,18.9,12.3c0.1-0.2,0.2-0.3,0.3-0.5c-0.5-1.6-2.1-1.8-3.3-2.4c-7.9-3.3-13.5-8.8-16.4-16.9
			c-4.3-12-3.3-23.5,3.9-34.1c3.2-4.8,4.2-4.8,8.4-0.9c8.2,7.6,17.5,12.3,28.7,13.2c1.3-0.1,2.6,1.6,3.7,0.8
			c0.1-0.1,0.1-0.1,0.1-0.2c1.4,1.8,4.6-1.8,5.7,0.8c1.6,4.5,0.7,9,0.2,13.5c-1.3,12.2-12.3,26.2-28.2,25.1c-1.3-0.1-2.4-0.1-3,1.3
			l-0.2,0.2c-0.4,0.7-0.9,1.4-1.6,2.6c3.7-1.2,7.1-1.3,10.4-1.1c3.4,0.2,6.8,0.7,10.7,1c-2-2-4.5-1.5-6.3-3c0.8-0.3,1.4-0.5,2-0.7
			C277.3,443,284.9,429,283.9,412.6z"/>
		<path class="st5" d="M342.9,366.3c-0.4-1.5-1.5-2.7-2.6-3.8c-1.6-1.7-3.3-3.5-5.5-4.1c-2.1-0.5-0.6,2.2-2.3,2.8
			c-2.9,1-4.5,3.6-6.3,6c-1.1,0.8-2,1.7-2.4,3c-2.9,3.4-5.8,6.7-8.6,10.1l0,0l0,0c-2.1,1.4-3.9,3-5.5,4.9c-2.1,1.8-4.3,3.6-6.4,5.4
			c-3.2,1.7-6.2,4-10,0.8c1,5.7,3.1,7.4,9.3,7.9l0,0c2.4,0.2,4.9,0.4,7.3-0.7l0,0c5.5-1.4,10.5-3.9,14.8-7.6
			c4.3-3.7,8.5-7.7,12.9-11.4c2.9-2.4,6.1-3.9,10.1-0.7C346.4,374.3,345.8,369.9,342.9,366.3z"/>
		<path class="st6" d="M345.2,523.7c9.6-3.6,12.2-10.8,10.4-20.3c2.3,4.6,3,9.3,1,14C354.6,522.1,350.1,523.4,345.2,523.7z"/>
		<path class="st7" d="M296.8,513.2c-7,0.5-14,0-21,0.3C282.8,510.8,289.8,510.4,296.8,513.2z"/>
		<path class="st8" d="M355.6,421.3c0.6-6.3,0.7-12.6-0.8-18.9C358,408.5,358.7,414.8,355.6,421.3z"/>
		<path class="st9" d="M225.3,437.2c1.8,4.7,4.6,8.7,8.2,12.4C228.4,449,226.1,445.5,225.3,437.2z"/>
		<path class="st10" d="M347.6,443.6c-3.3,2.6-6.4,5.7-12,6.1c6-2.8,9.8-6.5,13.1-11.4c0.8,2.4-1.5,3.5-1.2,5.3L347.6,443.6z"/>
		<path class="st7" d="M239.2,449.9c-5.8-0.2-7.9-4.9-10.3-9C232.2,443.9,235.6,447.1,239.2,449.9z"/>
		<path class="st11" d="M347.4,443.7c2.6-1.6,2.8-4.8,4.9-7.7c-0.1,5-2,7.9-6.1,10.6c0.7-1.5,1-2.3,1.3-3L347.4,443.7z"/>
		<path class="st12" d="M275.8,508.8c6.6-1.1,13.2-1.1,19.8,0C289,508.8,282.4,508.8,275.8,508.8z"/>
		<path class="st13" d="M349.9,497.2c-2.9-11.4-8.6-21.5-15.4-31.1c-6.8-9.5-15.1-13.2-26.4-9.2c-11.7,4.2-23.5,3.8-35.5,0.5
			c-8.9-2.4-18.3-3.9-27.4-0.4l0,0l0,0c-3.8,1.3-6.7,3.5-8.9,6.8c3.1-2.8,6.8-4.4,10.5-6.1l0,0c1.2,0.5,1.3,0.5,0.7,1
			c-9.6,8-15.2,18.8-20.6,29.7c-2.3,4.7-4.8,9.3-5.6,14.6c-1.4,8.5,4.2,13.9,12.7,12.6c1.7-0.3,3.3-0.5,5-0.9
			c12.1-2.6,24.3-5.3,36.7-5.9c6.6-0.5,13.2-0.5,19.8,0c2.1,0.2,4.2,0.3,6.3,0.5c11.3,1.4,22.5,3,33.8,4.4c2.7,0.4,5.4,0.4,8,0
			c5.7-1.2,7.4-3.2,7.3-8.8C350.9,502.4,350.6,499.8,349.9,497.2z"/>
		<path class="st5" d="M291.5,400.3c-0.2-1.8-2.4-3.2-1.3-5.7c1.5,2.7,3.5,4.9,6.7,6C294.7,401.9,293.1,400.5,291.5,400.3
			L291.5,400.3z"/>
		<path class="st14" d="M329.2,457.4c3.8,0.7,6.4,2.6,7.8,6.1C334.4,461.5,331.8,459.4,329.2,457.4z"/>
		<path class="st6" d="M291.5,400.2c0.2,0.7,2,1.9-0.3,2c-2,0.1-3-1.3-2.6-3.4c1.4-0.1,1.5,2,3,1.5
			C291.5,400.3,291.5,400.2,291.5,400.2z"/>
		<path class="st7" d="M221.4,411.2L221.4,411.2c0.2-4.2,2.1-8.2,2.5-12.4c-1.8,2.1-2.8,4.4-3.3,7c-1.1,2.6-1,5.1,0.1,7.8
			C221.6,412.7,221.6,411.9,221.4,411.2L221.4,411.2z"/>
		<path class="st15" d="M214.3,513L214.3,513L214.3,513c0.1-0.5,0.1-1,0.1-1.5c-0.1-0.5,0.2-1.2-1-1.5c-0.7,2.1-1.1,4.1,0.1,6.2l0,0
			c1.9,8.4,6.2,11.4,16.1,9.7C221.8,524.6,215.9,521.3,214.3,513z"/>
		<path class="st0" d="M353.2,410.4c-1-9.2-5.1-16.8-11.7-23.2c1.6-1,2.9,0.8,4.6,0.2c-1.3-1.8-2.8-3.1-4.3-4.3
			c-1.3-1-2.1-0.9-3.1,0.5c-9.2,13-21.7,20.4-37.5,22l0,0c-1.8-0.8-3.7-0.5-5.5-0.7c-1.7-0.3-3.4-0.6-5.1-1c2.9,2.1,3,4.7,2.7,8
			c-0.8,8.2,0.7,16.1,5,23.3c4.3,7.3,10.4,12.3,18.7,14.8c-1,1-2,1.1-3,1.4c-1.6,0.3-3.2,0.7-4.6,2.3c2.3-0.4,4.3-0.4,6.1-1.5l0,0
			c6.3-1.3,12.4-1.4,18.9,1.2c-1.1-2.1-3.3-1.8-4.2-3.4c13.7-4.8,20.8-14.7,23.2-28.5C353.6,417.9,353.5,414.1,353.2,410.4z
			 M349.2,422.1c-0.4,1.7-0.7,3.3-1.2,4.9c-4.3,15-17.5,23.6-31.5,20.5c-0.8-0.2-1.5-0.5-2.2-0.8c-14-5.5-19.2-20.4-18.5-31.7
			c0.2-2.6,0.2-5.4,3.2-6.6c0,0,0-0.1,0.1-0.1c2.4,1.3,4.7,1.8,6.8,0c0.1,0,0.1,0.1,0.2,0.1c2.1,0.1,4.2-0.4,6.1-1
			c8.6-2.7,16.4-6.9,23-12.9c2.4-2.1,3.9-2.1,6.1,0.4c4.4,5.2,6.6,11.2,7.8,17.7C349.8,415.7,349.8,418.9,349.2,422.1z"/>
		<path class="st16" d="M313.7,481.2c1,0.2,2.1,0.3,3.1,0.5c16.2,3.6,21.1,9.6,22.7,28c-1.3,1.2-2.8,0.6-4.1,0.3
			c-14.8-3.5-29.8-4.9-45.1-5.1c-16.6-0.2-32.8,1.5-48.9,5.1c-1.7,0.4-4.3,2-4.3-1.9c0.6-5.9,2.8-11.4,4.6-17c0.5-1.7,2-2.4,3.3-3.1
			c6-2.8,12.3-4.5,18.7-5.7c1.4-0.2,2.7-0.7,4-1.2c-7,0-13.7,1.2-20.3,3.1c-2.6,0.8-3.9,0.2-4.9-2.1c-0.1-0.4-0.4-0.7-0.6-1
			c-4-7.4-4-7.4,2.1-13.8c0.5-0.2,1-0.4,1.3-0.8c6.7-7.9,15.4-7.6,24.2-5.6c10.9,2.4,21.8,4.6,32.9,1.4c3.3-1,6.5-1.7,9.9-2.2
			c8.9-1.5,15.4,2.6,21,8.8c1.5,1.9,4.3,3.8,3.8,6.1c-0.8,3.3-3,6.3-4.8,9.3c-0.7,1.1-1.6,0.1-2.4-0.2c-3.9-1.7-8-3.2-12.3-3.4
			c-2.4-0.7-4.9,0.3-6.7-0.1c-1.1,0-0.7,0.9-0.8,0.4c0-0.2,0.1-0.2,0.2-0.3C311.7,480,312.7,480.6,313.7,481.2z"/>
		<path class="st17" d="M237.2,508c0.3,1.5,1,1.7,2.5,1.4c13.1-3.2,26.3-4.9,39.8-5.2c14.1-0.3,28-0.1,42,2.2c6,1,12,2.4,18,3.4
			c0.4,1.6,0.7,2.9-1.8,2.1c-25.4-7-51.1-7.5-77-4.5c-8,1-15.9,2.6-23.9,4.9C236.5,510.6,236.2,509.3,237.2,508z"/>
		<path class="st18" d="M333.5,468.7c-2,0.4-2.6-1.5-3.7-2.6c-5.5-5.4-12.2-6.1-19.3-4.9c-6.1,1.1-12,3.2-18.3,3.6
			c-7.1,0.4-14.1-1.2-20.8-2.8c-4.8-1.1-9.6-1.3-14.4-1.1c-3.8,0.1-6.6,2.1-9.4,4.3c-1,0.8-1.7,2.1-3.3,1.8
			c5.5-7.9,13.2-10.2,22.3-8.3c6,1.3,12,2.9,18,3.7c9,1.3,17.3-1.5,25.8-3.5C320.4,456.8,327.7,459.9,333.5,468.7z"/>
		<path class="st19" d="M313.7,481.2c-1.3-0.2-2.6-0.5-4-0.7c2.7-0.7,5.4-1.2,7.9,0C316.5,480.9,314.9,480.1,313.7,481.2z"/>
		<path class="st16" d="M298.6,408c2.7,0.2,5.4,0.4,8.1-0.5c11.2-2.1,20.8-7.2,29.1-15c2-1.8,3.1-1.9,4.9,0.1
			c5.1,5.5,8.3,11.9,9.2,19.4c0.5,3.5,0.5,6.9,0,10.4c-1.9,13.2-10.5,23.6-22,26.3c-4,0.9-8,1.1-12-0.4c0.1-1.8,1.5-1.5,2.6-1.6
			c17.6-0.8,25.1-7.1,28.7-23.9c-3.1,13.6-12.6,21.2-26.1,21c-11.4-0.2-21.1-9.1-23.8-21.8c2.1,8.9,7,19.2,15.7,22.8
			c1,0.4,2.6,1,1.8,2.9c-0.1,0.1-0.2,0.1-0.3,0.1c-0.1,0-0.2-0.1-0.4-0.1c-8.8-3.2-14-9.7-17.1-18.1c-2.3-6.1-2.9-12.3-1.7-18.9
			C295.8,408.5,296.7,407.9,298.6,408z"/>
		<path class="st17" d="M314.2,447.7c0.2-1.9-1.5-1.9-2.5-2.4c-9.6-5.2-13.3-14-14.5-24.3c4.4,10.9,9.7,20.8,23.2,21.8
			c16,1.2,22.9-9,27.4-22.5c0.1,12.7-9.2,26.1-22.4,27.5c-3.2,0.4-6.4-1.5-9.5,0.4C315.4,448.3,314.7,448.3,314.2,447.7z"/>
		<path class="st16" d="M281.2,409c1.4,4.9,1,9.9,0.1,14.9c-0.2,0.4-0.5,0.8-0.8,0.8c-1.5-0.4-2.8,0.2-2.9,1.7
			c-0.5,6.8-5.4,10.8-10.2,14.1c-15.2,10.4-31.5,0.7-37.2-12c-1.1-2.6-1.6-5.4-2-8c0.1,2.5,1.2,4.9,1.6,7.5c0.2,1.3,1,2.6-1,3
			c-5.2-14-3.4-26.9,6.4-38.4c2-2.3,3.3-2.3,5.4-0.1c8,8.6,17.9,13.9,29.7,15c2.6,0.7,5.1,0.1,7.7,0.3
			C279.2,407.8,280.6,407.4,281.2,409z"/>
		<path class="st20" d="M228.7,430.9c1.6-2.3-0.4-4.5-0.5-6.7c-0.1-1.7-0.5-3.3-0.1-5.7c1.8,8.5,5.1,15.3,11.8,20.4
			c6.6,5,16.3,5.8,23.9,2.4c5.2-2.3,8-6.6,11.5-10.4c1.1-1.1,2.1-3,1.4-4.2c-0.8-1.5-0.3-1.5,0.8-1.9c2-0.8,1-3.3,2-4.4
			c2.9,0.4-2.3,3.8,1.7,3.5c-1.3,13.2-14.8,27.6-29.9,25.5c-0.7-0.1-1.5,0.3-2.3,0.4c-1.1-1.5-3-1.4-4.5-2
			C237,444.4,231.8,438.7,228.7,430.9z"/>
		<path class="st21" d="M326.1,422.4c0-0.5,0.2-1.2-0.1-1.5c-1.7-2.3-3.9-4.3-2.1-7.5c0.2-0.4-0.2-1.1-0.9-1c-0.5,0.1-1,0.3-1.3,0.7
			c-1.2,1.6-1.5,3.5-1.7,5.5c-0.6,5.2-0.7,10.4,1,15.5c0.3,1,0.7,2.1,2.1,2c1.1-0.1,1.4-1.1,1.7-1.9
			C326.1,430.2,326.4,426.3,326.1,422.4z"/>
		<path class="st0" d="M256.9,422.4c0.3-1.2,0.5-2.4-0.7-3.2c-1.8-1.2-2.1-2.9-1.3-4.7c0.4-1,0.7-1.8-0.6-2.1
			c-1.1-0.4-1.7,0.5-2,1.4c-1,2-1.1,4.2-1.5,6.3c-0.2,4.6-0.4,9.1,1.1,13.5c0.4,1,0.5,2.2,1.8,2.3c1.5,0.1,2-1.3,2.3-2.3
			C257.1,429.9,257.6,426.2,256.9,422.4z"/>
	</g>
	<path class="st2" d="M331.4,320.4c-23.1,0.2-46.3,0.6-69.4,0.4c-11.7-0.1-23.5-1.3-35.2-2.2c-1-0.1-2.4-1.7-2.8-2.9
		c-4-11.5-7.9-23.1-11.8-34.6c-1.6-4.7-3.2-9.4-4.8-14.2c-1.1-3.2-1.7-6.3-5.6-8c-3.5-1.5-3.9-6.5-1.6-9.7c2.2-3.1,6.4-3.9,9.6-1.9
		c3.3,2.1,4.6,6.6,2.3,9.7c-1.7,2.2-1.2,3.7-0.1,5.8c4.2,7.9,9.3,15,16.7,20.3c5.4,3.9,11.5,6.6,18.2,6.8c11.5,0.3,18.8-6.4,24-15.8
		c5.9-10.6,8.4-22.3,9.9-34.2c0.1-1-0.5-2.3-1.1-3.2c-2.3-3.6-2.1-7.5,0.8-10.1c2.7-2.3,6.5-2.4,9.2-0.1c3.2,2.7,3.8,6.3,1.1,9.9
		c-2.5,3.3-0.7,6.6-0.3,9.6c1.7,11.2,5,22,11.4,31.6c4.1,6.1,9.6,10.6,16.8,12c3.5,0.7,7.6,0,11.2-1c14.7-4,23.1-14.9,29.5-27.8
		c0.4-0.8-0.1-2.2-0.6-3.1c-2.4-4-1.5-8.3,2.3-10.5c3.4-2,8-0.6,9.8,2.9c1.9,3.8,0.4,7.8-3.6,10c-1.2,0.7-2.5,1.9-2.9,3.2
		c-5.9,17.3-11.7,34.6-17.4,51.9c-0.7,2.1-1.6,3-4,3.1c-3.9,0.2-7.7,1-11.6,1.5C331.4,319.9,331.4,320.2,331.4,320.4z M364.2,257
		c1.4-1.7,2.9-2.7,2.9-3.6c-0.1-1.2-1.5-2.2-2.3-3.3c-1,0.8-2.8,1.6-2.8,2.5C361.7,253.8,363,255,364.2,257z M289.3,231.8
		c-1.9-1.2-3.1-2.4-4.1-2.3c-1,0.2-1.8,1.7-2.7,2.7c1,0.9,2,2.3,3.1,2.5C286.5,234.8,287.6,233.3,289.3,231.8z M205.3,249.1
		c-1.2,1.8-2.5,2.9-2.4,3.9c0.1,0.9,1.8,2.6,2.4,2.5c1.1-0.3,2.6-1.6,2.8-2.7C208.3,251.9,206.7,250.8,205.3,249.1z"/>
	<path class="st0" d="M375.9,247.5c-2.2-4.2-6.7-6.9-11.4-6.9c-2.2,0-4.4,0.6-6.3,1.7c-3,1.8-5.2,4.6-6,7.8
		c-0.8,3.2-0.3,6.6,1.3,9.8c-2.8,5.3-5.6,9.6-8.7,13.1l-1.8-0.5c-5.6-1.7-8.6-5.6-10.1-13.4c-0.1-0.5-0.2-1.1-0.4-1.7
		c-0.1-0.6-0.3-1.4-0.4-1.9c3.4-2.2,5.6-5.4,6.2-8.9c0.6-3.4-0.2-6.9-2.4-9.9c-2.4-3.2-6.2-5.1-10.2-5.1c-2.9,0-5.7,1-8,2.8
		c-3,2.4-4.8,5.8-5,9.3c-0.1,2.3,0.3,5.7,3.2,9c-1.9,4.6-4.5,7.7-8,9.6c-1.1,0.6-2.6,1-4.2,1.5c-0.8,0.2-1.5,0.4-2.3,0.7
		c-2.4-5.7-4.1-12.1-5.1-19.2c-0.1-0.9-0.4-1.8-0.5-2.6c-0.5-2.2-0.5-2.5-0.3-2.8c4.4-5.8,3.6-12.9-2-17.6c-2.3-2-5.2-3-8.2-3
		c-3,0-6,1.1-8.4,3.2c-5,4.4-5.8,11.4-1.9,17.4c0,0.1,0.1,0.1,0.1,0.2c-1,7.6-2.5,16-5.7,24.1l-0.5-0.1c-6.5-0.7-10.5-3.9-14.1-11.4
		c2.1-2.5,4-6.3,2.7-11.2c-1.5-5.8-6-9.6-11.8-9.8c-0.2,0-0.5,0-0.7,0c-5.7,0-10.1,3.1-11.9,8.2c-1.9,5.6-0.5,10.9,3.9,14.6
		c0,0,0.4,0.3,0.4,0.3c0.1,2.4,0,4.3-0.3,6c-1.2,6.5-4.2,10.2-9.9,12l-1.2,0.4c-3.2-3.5-6.1-7.7-8.9-13c0,0,0-0.1-0.1-0.1
		c1.7-2.5,2.4-5.5,1.8-8.6c-0.6-3.6-2.8-6.8-5.9-8.8c-2-1.3-4.4-2-6.8-2c-4.2,0-8.1,2-10.5,5.4c-2.3,3.3-3.1,7.5-2,11.2
		c0.9,3.2,3,5.7,6,7c1.1,0.5,1.3,0.9,2.2,3.7l0.3,0.9l1.7,5.1c1,3,2,6,3,9l2.4,7c3.1,9.1,6.2,18.4,9.4,27.6c0.3,0.8,0.7,1.7,1.3,2.6
		l1.1,4.4c0.1,0.5,0.2,1,0.3,1.4c0.3,1.5,3.7,8.3,4.5,10c1.2,2.5,4.1,5.2,7.4,5.5c8.3,0.7,16.7,1.2,24.8,1.8l3.9-4.5l8.8,0.2l1.3,0
		l1.1,0l24.2,0l10.3-0.2l0.2,0c1.7-0.1,1.4,3.8,3.2,3.7c3.9-0.2,8-0.4,12-0.7c4.4-0.3,9.7-0.7,15-1.5c3.2-0.4,5.9-2.9,7.2-5.1
		c1-1.8,3.5-7.6,3.7-8.8c0.1-0.3,0.1-0.5,0.2-0.7l1.8-5.9c0.6-0.8,1-1.8,1.4-2.9c6.6-20,12.2-36.4,17.3-51.6
		c0.1-0.1,0.2-0.2,0.3-0.3C376.8,261.3,379.2,254,375.9,247.5z"/>
	<path class="st4" d="M247.3,251.3c3.8,9.4,8.8,17,20.2,18.3c-3.7,7.3-8.9,12.8-16.9,14.8c-8.4,2.1-15.7-0.3-22.6-6.3
		c8.4-2.7,12.3-8.7,13.7-16.4c0.5-2.9,0.5-5.9,0.3-8.9c-0.1-1-1.4-2-2.3-2.8c-2.8-2.3-3.3-5.2-2.2-8.4c1.1-3.2,3.8-4.6,7.1-4.4
		c3.5,0.2,5.7,2.3,6.6,5.6C252.3,246.4,250.1,248.9,247.3,251.3z M247.9,243.9c-2-1.2-3.2-2.5-4.1-2.4c-1,0.2-1.8,1.8-2.6,2.8
		c1,0.9,1.9,2.3,2.9,2.4C245,246.8,246.1,245.3,247.9,243.9z"/>
	<path class="st4" d="M340.9,277.9c-11.1,12.4-31.6,8-38.7-7.9c2.6-0.9,5.5-1.4,7.9-2.7c5.7-3.1,9.1-8.3,11.2-14.3
		c0.3-0.9-0.3-2.5-1.1-3.3c-4.1-4.2-2.3-8.6,0.5-10.9c3.2-2.5,7.8-1.9,10.2,1.3c2.7,3.7,1.7,8-2.4,10.7c-3.9,2.5-2.1,6.5-1.6,9.3
		C328.5,268.1,331.8,275.2,340.9,277.9z M324.8,248.2c1.4-1.7,3-2.8,2.9-3.7c-0.2-1.1-1.7-2.1-2.6-3.1c-0.9,0.9-2.4,1.7-2.6,2.7
		C322.4,245.1,323.7,246.3,324.8,248.2z"/>
	<path class="st2" d="M262,320.8c-11.7-0.1-23.5-1.3-35.2-2.2c-1-0.1-2.4-1.7-2.8-2.9c-4-11.5-7.9-23.1-11.8-34.6
		c-1.6-4.7-3.2-9.4-4.8-14.2c-1.1-3.2-1.7-6.3-5.6-8c-3.5-1.5-3.9-6.5-1.6-9.7c2.2-3.1,6.4-3.9,9.6-1.9c3.3,2.1,4.6,6.6,2.3,9.7
		c-1.7,2.2-1.2,3.7-0.1,5.8c4.2,7.9,9.3,15,16.7,20.3c5.4,3.9,11.5,6.6,18.2,6.8c11.5,0.3,18.8-6.4,24-15.8
		c5.9-10.6,8.4-22.3,9.9-34.2c0.1-1-0.5-2.3-1.1-3.2c-2.3-3.6-2.1-7.5,0.8-10.1c2.7-2.3,6.5-2.4,9.2-0.1c3.2,2.7,3.8,6.3,1.1,9.9
		c-2.5,3.3-0.7,6.6-0.3,9.6c1.7,11.2,5,22,11.4,31.6c4.1,6.1,9.6,10.6,16.8,12c3.5,0.7,7.6,0,11.2-1c14.7-4,23.1-14.9,29.5-27.8
		c0.4-0.8-0.1-2.2-0.6-3.1c-2.4-4-1.5-8.3,2.3-10.5c3.4-2,8-0.6,9.8,2.9c1.9,3.8,0.4,7.8-3.6,10c-1.2,0.7-2.5,1.9-2.9,3.2
		c-5.9,17.3-11.7,34.6-17.4,51.9c-0.7,2.1-1.6,3.8-4,4.1c-11.6,1.2,0,0-11.6,1.2C331.4,320.6,285.1,321,262,320.8z M364.2,257
		c1.4-1.7,2.9-2.7,2.9-3.6c-0.1-1.2-1.5-2.2-2.3-3.3c-1,0.8-2.8,1.6-2.8,2.5C361.7,253.8,363,255,364.2,257z M289.3,231.8
		c-1.9-1.2-3.1-2.4-4.1-2.3c-1,0.2-1.8,1.7-2.7,2.7c1,0.9,2,2.3,3.1,2.5C286.5,234.8,287.6,233.3,289.3,231.8z M205.3,249.1
		c-1.2,1.8-2.5,2.9-2.4,3.9c0.1,0.9,1.8,2.6,2.4,2.5c1.1-0.3,2.6-1.6,2.8-2.7C208.3,251.9,206.7,250.8,205.3,249.1z"/>
	<path class="st4" d="M261.5,338.1c-10.5-0.7-18-0.4-28.6-1.2c-1-0.1-2.3-1.2-2.8-2.2c-0.8-1.7-3-9.6-3.5-11.5
		c2.2,0,4.3,0.1,6.5,0.1c1.6,0.1,3.2,0.2,4.9,0.3c1,0,1.9,0.1,2.9,0.1c1.2,0.1,2.3,0.1,3.5,0.2c4.9,0.3,9.7,0.7,14.6,1
		c2.6,0.1,5.2,0.2,7.8,0.3c0.5,0,1,0.1,1.5,0.1c0.5-0.1,0.9-0.1,1.4-0.2c24.7-0.4,49.5-0.8,74.2-1.1c-0.3,1.1-1.6,7.9-2.4,9.4
		c-0.6,1-1.9,2.1-3,2.3c-4.8,0.7-9.7,1.1-14.6,1.4c-5.7,0.4-11.4,0.7-17.1,1c-3.4,0.1-6.8,0.1-10.2,0.2c-8.1,0-16.1,0-24.2,0
		c-0.3,0-0.6,0-0.9,0c-0.4,0-0.8,0-1.2,0C267.3,338.3,264.4,338.2,261.5,338.1z"/>
	<polygon class="st0" points="299.4,291.1 285.3,276.9 271.1,291.1 285.3,315.3 	"/>
	<polygon class="st22" points="296.6,291.3 285.3,279.9 273.9,291.3 285.3,310.6 	"/>
	<polyline class="st23" points="285.3,279.8 273.9,291.2 285.3,310.5 	"/>
	<polygon class="st2" points="285.3,75 255.9,90.5 261.5,57.7 237.7,34.5 270.6,29.8 285.3,0 300,29.8 332.8,34.5 309,57.7 
		314.7,90.5 	"/>
	<polyline class="st4" points="285.5,0 300.2,29.8 333.1,34.5 309.3,57.7 314.9,90.5 285.5,75 	"/>
</g>
</svg>
